<?xml version="1.0" standalone="no"?>
<!DOCTYPE svg PUBLIC "-//W3C//DTD SVG 20010904//EN"
 "http://www.w3.org/TR/2001/REC-SVG-20010904/DTD/svg10.dtd">
<svg version="1.0" xmlns="http://www.w3.org/2000/svg"
 width="512.000000pt" height="512.000000pt" viewBox="0 0 512.000000 512.000000"
 preserveAspectRatio="xMidYMid meet">
<metadata>
Created by potrace 1.14, written by Peter Selinger 2001-2017
</metadata>
<g transform="translate(0.000000,512.000000) scale(0.100000,-0.100000)"
fill="#000000" stroke="none">
<path d="M2280 5109 c-647 -73 -1260 -399 -1677 -894 -260 -309 -460 -713
-547 -1106 -75 -338 -75 -760 0 -1098 105 -478 370 -953 716 -1286 419 -404
948 -653 1520 -715 140 -15 423 -12 572 5 483 57 956 261 1343 582 489 405
823 1022 898 1659 19 165 19 443 0 608 -53 456 -243 913 -532 1283 -407 521
-1048 881 -1709 958 -139 16 -456 18 -584 4z m575 -496 c909 -125 1633 -852
1761 -1769 21 -156 21 -412 0 -568 -129 -919 -849 -1641 -1767 -1771 -155 -22
-421 -22 -575 0 -837 120 -1514 724 -1723 1538 -86 332 -86 697 -1 1032 144
568 530 1054 1055 1326 387 201 810 273 1250 212z"/>
<path d="M2508 3672 c-31 -13 -1029 -1006 -1049 -1044 -27 -52 -25 -127 3
-163 46 -59 77 -65 360 -65 l257 0 3 -432 c3 -415 4 -434 23 -460 11 -15 37
-36 57 -48 36 -20 47 -21 410 -18 368 3 373 3 404 25 64 46 64 47 64 512 l0
421 258 0 c283 0 314 6 360 65 28 36 30 111 3 163 -20 38 -1018 1031 -1049
1044 -9 4 -33 7 -52 7 -19 0 -43 -3 -52 -7z"/>
</g>
</svg>
